<?xml version="1.0" standalone="no"?>
<!DOCTYPE svg PUBLIC "-//W3C//DTD SVG 20010904//EN"
 "http://www.w3.org/TR/2001/REC-SVG-20010904/DTD/svg10.dtd">
<svg version="1.0" xmlns="http://www.w3.org/2000/svg"
 width="300.000000pt" height="300.000000pt" viewBox="0 0 300.000000 300.000000"
 preserveAspectRatio="xMidYMid meet">
<metadata>
Created by potrace 1.10, written by Peter Selinger 2001-2011
</metadata>
<g transform="translate(0.000000,300.000000) scale(0.100000,-0.100000)"
fill="#000000" stroke="none">
<path d="M1125 2833 c-22 -10 -46 -23 -53 -30 -8 -7 -27 -20 -42 -28 -46 -24
-93 -88 -129 -177 -72 -175 -68 -168 -94 -168 -33 0 -50 -23 -51 -68 l-1 -37
-60 -6 c-72 -7 -137 -32 -110 -43 11 -4 25 0 35 9 11 10 38 15 83 15 l67 0 0
56 c0 54 1 55 28 54 56 -4 62 -1 62 29 0 17 5 33 10 36 6 3 10 14 10 24 0 25
72 171 103 206 34 41 162 116 207 122 45 6 90 -15 120 -58 33 -45 78 -141 85
-182 4 -20 14 -42 22 -48 8 -7 21 -25 29 -41 8 -16 19 -26 25 -22 7 4 5 12 -5
23 -9 10 -13 21 -10 24 4 4 0 9 -9 13 -9 3 -20 22 -23 42 -9 44 -76 189 -102
218 -46 53 -122 67 -197 37z"/>
<path d="M1134 2785 c-19 -14 -19 -14 2 -15 29 0 101 -48 177 -119 l66 -63
-26 49 c-14 26 -31 58 -38 71 -7 13 -27 38 -44 57 -27 30 -38 35 -74 35 -24 0
-52 -7 -63 -15z"/>
<path d="M1039 2727 c-45 -30 -96 -108 -115 -177 -9 -30 -18 -63 -20 -72 -3
-10 -1 -18 4 -18 5 0 12 20 15 45 4 25 18 67 32 94 27 54 94 131 114 131 14 0
14 0 -46 -87 -24 -35 -43 -69 -43 -76 0 -7 -4 -17 -9 -22 -15 -16 -25 -85 -12
-85 6 0 11 -9 11 -21 0 -11 -4 -17 -10 -14 -5 3 -10 1 -10 -4 0 -6 10 -11 21
-11 17 0 20 5 16 21 -3 12 8 54 27 99 70 166 138 206 228 133 l33 -27 -25 28
c-33 37 -118 86 -151 86 -14 0 -41 -10 -60 -23z m71 -16 c0 -5 -11 -16 -25
-25 -29 -19 -33 -11 -8 16 17 19 33 24 33 9z"/>
<path d="M1765 2726 c-16 -8 -50 -32 -75 -55 -25 -22 -48 -41 -51 -41 -16 0
-70 -59 -82 -90 -28 -70 -27 -94 2 -33 24 51 39 68 83 96 29 19 62 45 73 57
11 13 40 32 64 42 80 36 166 1 287 -119 100 -99 114 -117 114 -151 0 -26 2
-27 40 -24 l40 4 0 -56 0 -56 64 0 c36 0 67 -4 70 -8 3 -5 18 -7 33 -5 24 4
34 -3 62 -37 30 -38 33 -46 29 -95 -4 -47 -2 -54 14 -57 10 -2 17 -6 16 -9 -6
-14 36 -49 58 -49 40 0 57 -49 63 -180 l6 -115 12 80 c20 140 2 214 -60 240
-58 25 -87 61 -87 109 0 49 -38 109 -80 124 -46 18 -105 32 -140 34 -33 3 -35
5 -38 40 -3 39 -33 71 -57 62 -8 -3 -22 12 -35 38 -26 53 -55 87 -140 163
-105 94 -206 126 -285 91z"/>
<path d="M1784 2676 c-17 -8 -40 -25 -51 -39 -11 -15 -23 -24 -25 -21 -10 9
-28 -24 -22 -40 5 -13 9 -12 26 9 23 29 68 55 97 55 37 0 89 -32 107 -66 12
-21 21 -29 25 -22 19 30 -47 99 -103 108 l-43 7 45 2 c46 1 107 -28 93 -44 -5
-4 -3 -5 3 -2 7 4 17 0 24 -8 7 -8 10 -15 6 -15 -3 0 3 -14 13 -31 10 -17 17
-40 14 -52 -4 -21 -4 -21 10 2 l14 23 16 -41 c9 -22 19 -41 22 -41 8 0 -14 52
-46 107 -26 46 -88 111 -107 114 -52 7 -93 5 -118 -5z"/>
<path d="M1135 2661 c3 -2 -5 -15 -17 -28 -26 -28 -16 -31 12 -3 23 23 53 26
73 6 16 -16 57 -24 73 -13 7 4 17 -5 24 -23 7 -17 15 -29 17 -26 2 2 -3 19
-12 36 -12 23 -20 29 -27 22 -8 -8 -20 -4 -41 14 -22 18 -39 24 -68 22 -21 -1
-36 -4 -34 -7z"/>
<path d="M2014 2595 c17 -22 38 -51 49 -65 27 -36 47 -88 41 -105 -4 -8 -1
-15 4 -15 6 0 12 12 14 28 5 38 -36 108 -91 157 l-46 40 29 -40z"/>
<path d="M1757 2571 c-58 -64 -67 -83 -60 -124 4 -27 10 -37 24 -37 17 0 19
-7 17 -62 l-2 -63 -3 53 c-5 69 -23 67 -23 -3 0 -51 -2 -55 -32 -71 -51 -26
-97 -64 -103 -85 -5 -16 -16 -19 -70 -19 -53 0 -63 3 -68 19 -4 17 -104 91
-123 91 -5 0 -8 28 -8 62 l2 63 -7 -60 -8 -60 -1 58 c-2 71 -22 68 -22 -3 l0
-49 68 -40 c38 -22 75 -52 85 -70 17 -30 21 -31 82 -31 61 0 65 1 82 31 17 30
152 119 180 119 9 0 13 16 12 53 l-2 52 -6 -42 c-11 -63 -21 -64 -21 -1 l0 55
35 1 35 1 -2 -52 c-1 -50 -2 -50 -5 -9 -6 58 -23 53 -23 -7 l0 -48 35 1 c35 1
35 1 35 49 0 28 -5 47 -11 47 -7 0 -9 -12 -5 -34 4 -20 2 -37 -4 -41 -17 -10
-12 146 5 169 21 27 19 46 -7 73 -12 13 -16 23 -9 23 7 0 9 4 6 10 -3 6 1 7
10 4 8 -4 20 -15 26 -25 5 -11 14 -17 20 -14 5 4 9 1 9 -6 0 -7 3 -9 7 -6 3 4
-6 21 -22 37 -42 44 -83 41 -128 -9z m60 13 c-3 -4 3 -18 13 -32 23 -29 25
-45 8 -64 -7 -8 -18 -23 -24 -33 -8 -15 -22 -20 -50 -20 -37 0 -39 2 -42 34
-3 30 3 41 40 77 24 24 47 43 52 44 5 0 6 -3 3 -6z"/>
<path d="M1199 2583 c-13 -16 -12 -17 3 -5 9 7 29 12 45 10 22 -2 33 -13 50
-46 21 -42 21 -44 4 -75 -17 -31 -21 -32 -79 -32 -34 0 -62 -3 -62 -8 0 -4 -8
-7 -17 -5 -15 3 -18 -6 -21 -58 -3 -55 -1 -62 18 -67 18 -5 20 -1 20 54 0 52
2 59 20 59 17 0 20 -7 20 -52 0 -58 -16 -56 -23 2 -3 28 -4 25 -5 -15 l-2 -50
45 0 45 0 0 59 c0 57 1 58 25 54 22 -5 25 -2 25 24 0 15 5 36 11 46 9 14 6 29
-12 67 -22 45 -28 50 -60 53 -25 2 -40 -2 -50 -15z m-49 -217 c0 -25 -4 -48
-10 -51 -6 -4 -10 13 -10 44 0 28 5 51 10 51 6 0 10 -20 10 -44z m98 -8 c-1
-51 -2 -51 -5 -10 -2 23 -8 42 -13 42 -5 0 -11 -19 -13 -42 -3 -41 -4 -41 -5
10 -2 46 0 52 18 52 18 0 20 -6 18 -52z"/>
<path d="M1351 2544 c12 -25 25 -67 29 -93 7 -40 8 -41 9 -13 1 19 5 31 11 27
19 -12 10 21 -19 67 -40 62 -55 69 -30 12z"/>
<path d="M1621 2559 c-17 -17 -36 -41 -42 -52 -9 -19 -7 -18 11 3 l21 25 -13
-35 c-8 -21 -11 -49 -7 -70 l6 -35 2 32 c0 17 4 33 9 35 4 2 18 26 31 55 13
29 28 50 32 47 5 -3 6 2 3 10 -9 23 -19 20 -53 -15z"/>
<path d="M1692 2538 c-35 -45 -69 -150 -42 -133 6 3 10 16 10 29 0 13 11 44
25 70 24 45 27 58 7 34z"/>
<path d="M1099 2483 c-5 -16 -20 -36 -32 -46 -15 -13 -18 -20 -9 -24 7 -3 12
-25 12 -59 0 -47 2 -54 20 -54 17 0 20 7 20 47 0 54 -16 49 -23 -7 -3 -27 -4
-23 -5 18 -2 39 2 52 12 52 9 0 12 7 9 20 -3 11 0 33 5 50 14 38 5 40 -9 3z"/>
<path d="M1869 2485 c-7 -67 -9 -73 -19 -50 -8 19 -9 19 -9 -2 -1 -16 5 -23
18 -23 21 0 32 44 20 76 -7 18 -8 18 -10 -1z"/>
<path d="M1353 2453 c0 -24 4 -43 8 -43 11 0 11 38 0 65 -6 15 -8 8 -8 -22z"/>
<path d="M1937 2476 c-4 -9 -1 -16 4 -16 7 0 9 -11 7 -25 -3 -14 -1 -25 3 -25
5 0 9 7 9 15 0 9 8 28 17 43 14 22 15 25 2 15 -11 -9 -19 -9 -26 -2 -7 7 -12
6 -16 -5z"/>
<path d="M2004 2466 c-3 -14 -4 -33 -1 -43 3 -10 5 -3 6 15 1 19 5 31 11 27 6
-3 10 1 10 9 0 25 -19 19 -26 -8z"/>
<path d="M930 2435 c0 -16 -30 -17 -41 -2 -3 5 -9 2 -12 -7 -5 -13 1 -16 28
-16 28 0 35 4 35 20 0 11 -2 20 -5 20 -3 0 -5 -7 -5 -15z"/>
<path d="M1460 2423 c1 -14 27 -43 39 -43 14 0 14 11 -3 33 -13 17 -36 24 -36
10z"/>
<path d="M790 2337 c0 -47 -4 -57 -34 -86 l-34 -33 -71 9 c-65 9 -72 8 -90
-11 -10 -12 -22 -31 -26 -44 -6 -21 -3 -20 40 13 26 19 55 34 64 31 9 -2 29
-7 44 -10 l28 -7 -19 -27 c-25 -37 -37 -62 -17 -37 28 36 129 137 145 145 11
6 14 21 10 62 l-4 53 -7 -55 -6 -55 -1 53 c-3 68 -22 68 -22 -1z"/>
<path d="M849 2378 c0 -7 -2 -28 -3 -45 -2 -18 0 -33 5 -33 5 0 9 20 9 45 0
25 -2 45 -5 45 -3 0 -5 -6 -6 -12z"/>
<path d="M870 2345 c0 -38 3 -45 20 -45 17 0 20 6 18 48 l-1 47 -7 -45 -7 -45
-1 43 c-3 56 -22 54 -22 -3z"/>
<path d="M920 2345 c0 -38 3 -45 20 -45 17 0 20 6 18 48 l-1 47 -7 -45 c-7
-46 -14 -38 -10 13 1 15 -3 27 -9 27 -6 0 -11 -20 -11 -45z"/>
<path d="M972 2348 c-2 -42 1 -48 18 -48 17 0 20 7 20 46 0 54 -19 51 -22 -4
-1 -37 -1 -37 -8 8 l-7 45 -1 -47z"/>
<path d="M1040 2345 c0 -25 5 -45 10 -45 7 0 10 19 9 45 -2 25 -6 45 -11 45
-4 0 -8 -20 -8 -45z"/>
<path d="M1324 2335 c1 -30 4 -55 8 -55 5 0 8 25 8 55 0 30 -4 55 -8 55 -4 0
-8 -25 -8 -55z"/>
<path d="M1353 2330 c0 -36 2 -50 4 -32 2 17 2 47 0 65 -2 17 -4 3 -4 -33z"/>
<path d="M1371 2323 c1 -75 10 -93 45 -93 23 0 24 2 22 83 l-2 82 -3 -78 c-5
-97 -22 -93 -25 6 l-2 72 -6 -80 -6 -80 -2 78 c-1 42 -6 77 -12 77 -5 0 -9
-30 -9 -67z"/>
<path d="M1560 2313 c-1 -67 -2 -76 -14 -60 -8 10 -20 15 -29 11 -22 -8 -55
12 -60 38 -2 13 -5 2 -6 -24 l-1 -48 60 0 60 0 0 80 c0 44 -2 80 -5 80 -3 0
-5 -35 -5 -77z"/>
<path d="M1589 2388 c-6 -11 -3 -158 3 -158 4 0 8 36 8 80 0 67 -4 92 -11 78z"/>
<path d="M1611 2316 c0 -47 3 -76 8 -70 5 5 5 40 1 79 l-7 70 -2 -79z"/>
<path d="M1643 2330 c0 -36 2 -50 4 -32 2 17 2 47 0 65 -2 17 -4 3 -4 -33z"/>
<path d="M1660 2335 c0 -30 5 -55 10 -55 6 0 10 25 10 55 0 30 -4 55 -10 55
-5 0 -10 -25 -10 -55z"/>
<path d="M1693 2335 c0 -33 2 -45 4 -27 2 18 2 45 0 60 -2 15 -4 0 -4 -33z"/>
<path d="M1871 2342 c-1 -33 3 -51 9 -47 12 7 12 52 0 80 -6 15 -9 6 -9 -33z"/>
<path d="M1920 2345 c0 -25 5 -45 10 -45 6 0 10 20 10 45 0 25 -4 45 -10 45
-5 0 -10 -20 -10 -45z"/>
<path d="M1972 2345 c1 -63 18 -68 18 -6 0 28 -4 51 -10 51 -5 0 -9 -20 -8
-45z"/>
<path d="M2002 2345 c-2 -45 0 -51 18 -51 17 0 20 7 20 48 0 29 -5 48 -11 48
-7 0 -9 -12 -5 -34 4 -19 2 -37 -3 -40 -6 -4 -11 12 -14 36 l-4 43 -1 -50z"/>
<path d="M2052 2348 c-2 -42 1 -48 18 -48 17 0 20 7 20 48 0 34 -3 43 -10 32
-5 -8 -7 -23 -4 -32 3 -10 2 -23 -3 -30 -5 -8 -10 4 -14 32 l-6 45 -1 -47z"/>
<path d="M2100 2346 c0 -39 3 -46 20 -46 17 0 20 6 18 48 l-1 47 -6 -45 c-4
-29 -8 -39 -13 -28 -4 9 -4 25 -1 36 2 11 0 23 -6 26 -7 5 -11 -8 -11 -38z"/>
<path d="M2150 2345 c0 -25 5 -45 10 -45 6 0 10 20 10 45 0 25 -4 45 -10 45
-5 0 -10 -20 -10 -45z"/>
<path d="M2182 2347 c-2 -41 3 -53 31 -84 67 -77 112 -113 131 -109 10 3 47
-6 83 -19 51 -18 63 -20 59 -8 -3 8 -6 20 -6 26 0 7 -4 6 -10 -3 -8 -13 -15
-13 -58 3 -28 9 -61 17 -75 17 -20 0 -37 16 -37 35 0 2 24 11 53 20 52 17 82
35 59 35 -6 0 -41 -10 -77 -22 l-66 -21 -27 29 c-24 26 -27 36 -24 88 3 44 1
57 -8 51 -8 -5 -10 -20 -7 -41 3 -19 2 -36 -3 -39 -5 -3 -11 16 -13 42 l-3 48
-2 -48z"/>
<path d="M502 2229 c-12 -23 -19 -46 -16 -51 7 -12 3 -10 -41 12 -40 20 -95
19 -122 -2 -16 -13 25 -48 56 -48 26 0 28 -31 4 -60 -22 -25 -23 -34 -29 -176
l-5 -112 33 -38 c24 -27 29 -39 19 -42 -7 -2 -22 -13 -32 -23 -17 -17 -18 -34
-15 -189 2 -94 7 -174 10 -177 3 -4 6 8 6 25 0 25 5 33 23 37 13 4 24 13 24
21 0 17 -19 18 -36 2 -10 -11 -12 -9 -9 7 2 10 14 22 28 26 l25 6 -25 5 c-23
5 -23 5 -2 7 30 2 28 21 -3 21 -25 0 -25 0 -25 100 0 100 0 100 25 100 22 0
25 4 25 35 0 25 -4 35 -16 35 -8 0 -12 5 -9 10 3 6 -1 10 -10 10 -14 0 -15 16
-13 118 3 113 4 117 26 120 27 4 30 32 2 32 -11 0 -20 7 -20 16 0 11 6 14 20
9 18 -6 20 -2 19 52 0 32 -3 52 -6 46 -6 -16 -45 -17 -61 -1 -20 20 -13 28 26
28 28 0 47 -8 69 -28 28 -24 32 -35 35 -90 2 -48 6 -62 19 -62 13 0 15 -17 14
-117 -2 -92 -5 -117 -15 -115 -7 2 -25 -2 -40 -8 l-28 -11 -1 -249 c-1 -278
-3 -269 70 -250 43 12 50 25 19 35 -17 5 -18 10 -9 26 6 12 8 27 5 35 -3 8 1
26 9 38 14 21 14 24 0 30 -38 14 -74 -1 -45 -19 11 -7 12 -86 1 -124 -6 -21
-8 -22 -19 -8 -10 11 -12 70 -10 246 3 213 4 230 21 235 16 4 18 0 13 -19 -6
-23 -4 -24 22 -19 l29 6 -3 -139 c-2 -87 0 -129 5 -113 8 22 9 19 10 -19 1
-38 3 -42 16 -31 9 7 13 20 10 29 -5 12 -2 12 13 -2 23 -21 29 -21 29 -2 0 8
-4 15 -9 15 -5 0 -20 11 -33 25 -23 22 -25 32 -25 112 l1 88 24 -30 c14 -16
25 -25 25 -20 0 6 5 2 11 -8 5 -9 7 -22 4 -27 -8 -14 38 -90 76 -125 28 -26
26 -22 -9 23 -39 50 -59 93 -30 64 22 -22 32 -12 11 11 -31 33 -70 116 -78
167 -4 25 -11 52 -16 60 -12 19 -1 -48 17 -108 10 -37 10 -41 -1 -32 -8 7 -17
21 -21 33 -4 12 -12 27 -20 34 -9 10 -11 43 -7 141 5 110 4 129 -11 141 -13
11 -16 33 -16 120 0 69 4 111 12 119 6 6 9 14 6 17 -3 3 -15 -13 -26 -36z"/>
<path d="M939 2260 c-25 -4 -71 -20 -102 -34 -267 -127 -317 -486 -97 -689 82
-77 147 -101 270 -102 109 0 155 11 225 57 28 18 53 32 56 33 3 0 34 20 67 45
76 56 140 89 170 90 14 0 56 -29 114 -80 94 -82 151 -114 66 -37 -63 57 -97
113 -119 198 -26 99 -24 165 6 258 4 15 3 21 -3 17 -5 -3 -12 -20 -16 -38 l-6
-33 -62 1 c-34 0 -63 5 -65 11 -2 6 34 26 79 46 74 31 86 40 106 79 20 38 21
40 3 18 -11 -14 -21 -28 -21 -32 0 -9 -154 -88 -171 -88 -6 0 -9 9 -6 20 3 10
-1 24 -9 31 -7 6 -24 31 -38 55 -27 48 -22 52 33 33 70 -25 35 2 -89 65 -71
37 -130 65 -130 63 0 -3 21 -19 48 -36 59 -38 92 -72 129 -136 39 -67 63 -139
64 -194 1 -43 1 -44 11 -18 9 24 14 27 59 27 47 0 49 -1 49 -28 0 -15 -6 -34
-12 -41 -10 -11 -10 -13 0 -7 6 4 12 2 12 -3 0 -7 -24 -11 -60 -11 -58 0 -60
-1 -60 -27 0 -42 -76 -184 -115 -216 l-35 -29 36 54 c57 84 85 153 91 227 18
210 -132 414 -331 450 -66 12 -80 12 -147 1z m234 -47 c197 -93 287 -335 198
-535 -33 -72 -112 -152 -189 -190 -57 -28 -79 -34 -154 -36 -122 -5 -203 26
-289 110 -101 100 -144 223 -120 351 48 259 323 408 554 300z m371 -279 c9 -3
16 -12 16 -19 0 -9 -18 -14 -55 -17 -46 -2 -55 0 -55 14 0 9 6 19 13 21 18 8
63 8 81 1z m25 -181 c6 -21 11 -41 11 -44 0 -4 -21 -14 -47 -24 -27 -10 -69
-28 -94 -41 l-46 -23 24 46 c13 26 23 52 23 60 0 9 18 14 63 15 l62 2 -60 4
c-44 3 -55 6 -40 12 18 8 18 9 2 9 -10 1 -15 6 -12 11 3 6 28 10 55 10 48 0
49 -1 59 -37z m25 -79 c3 -9 6 -23 6 -32 0 -12 -5 -10 -25 8 -19 18 -22 26
-13 32 19 11 25 10 32 -8z"/>
<path d="M895 2218 c-54 -20 -131 -75 -168 -120 -178 -217 -80 -537 187 -614
278 -79 541 192 457 472 -33 110 -97 188 -197 239 -52 26 -71 30 -154 32 -52
1 -108 -3 -125 -9z m267 -37 c81 -39 181 -156 192 -223 1 -7 5 -19 10 -26 4
-7 2 -19 -4 -27 -8 -10 -9 -15 -2 -15 12 0 10 -92 -3 -125 -22 -60 -58 -124
-79 -144 l-25 -23 -48 35 c-78 57 -88 71 -73 107 9 23 16 28 29 21 28 -15 95
-21 131 -12 38 10 21 14 -42 11 -22 -1 -38 3 -38 9 0 6 -6 11 -13 11 -7 0 -20
12 -29 27 l-16 26 -7 -24 c-18 -59 -86 -99 -153 -89 -46 7 -102 51 -102 82 0
10 -3 18 -7 18 -19 0 -86 -58 -113 -98 l-29 -45 -12 29 c-6 16 -13 43 -16 60
-5 28 -1 34 33 55 27 16 54 24 86 24 36 0 48 4 48 15 0 8 7 28 15 44 16 30 16
30 -4 12 -12 -11 -29 -16 -40 -13 -28 7 -112 -11 -131 -28 -9 -8 -20 -15 -24
-15 -13 0 5 63 26 93 24 34 66 36 134 7 41 -18 49 -19 62 -6 12 12 8 17 -30
40 -25 14 -66 29 -92 32 -46 7 -46 7 -29 27 10 11 37 29 61 39 42 19 44 19 63
2 11 -10 33 -38 49 -62 28 -42 29 -46 12 -59 -15 -11 -13 -12 11 -3 16 5 40
10 55 11 23 1 24 2 7 7 -11 4 -21 14 -23 22 -6 25 -53 81 -85 100 l-31 19 30
11 c16 6 38 14 49 19 20 10 20 10 0 10 -11 0 -42 -11 -70 -24 -27 -14 -57 -25
-65 -25 -9 0 -25 -7 -37 -15 -12 -8 -24 -11 -27 -7 -5 9 68 68 119 96 46 25
214 17 277 -13z m-417 -121 c-4 -12 -1 -28 7 -37 11 -14 11 -17 -1 -21 -8 -3
-25 -16 -38 -28 -13 -13 -29 -24 -35 -24 -9 0 -9 3 0 12 7 7 12 19 12 28 0 14
48 89 58 90 2 0 0 -9 -3 -20z m-15 -218 c2 -2 -2 -7 -10 -12 -8 -5 -15 -13
-16 -17 0 -4 -4 -16 -8 -26 -5 -9 -6 -28 -4 -42 3 -13 1 -22 -3 -19 -12 7 -29
73 -29 111 0 31 0 31 33 20 17 -6 34 -13 37 -15z m186 -97 c3 -8 1 -36 -5 -63
-9 -33 -9 -61 -2 -92 5 -25 8 -46 5 -49 -6 -7 -54 21 -86 51 -26 25 -42 16
-16 -10 7 -7 9 -12 4 -12 -10 0 -96 81 -96 92 0 4 9 8 19 8 11 0 31 14 46 32
l26 31 -3 -46 c-2 -26 1 -46 7 -46 6 0 9 10 7 22 -2 15 9 35 33 60 39 40 53
45 61 22z m282 -127 c23 -10 42 -21 42 -24 0 -3 -24 -16 -52 -29 -31 -15 -45
-25 -33 -25 14 -1 10 -5 -14 -15 -41 -18 -44 -18 -38 -1 3 8 -5 29 -19 47 -30
41 -40 93 -25 126 l12 26 42 -43 c23 -23 61 -51 85 -62z m-204 86 c9 -3 16
-15 16 -27 0 -27 34 -97 61 -126 12 -12 19 -24 17 -26 -5 -5 -117 -9 -121 -4
-22 33 -38 177 -18 165 5 -3 11 1 15 9 6 17 8 17 30 9z m-124 -161 c24 -14 34
-15 54 -5 15 6 26 8 26 3 0 -5 3 -16 6 -24 5 -14 0 -14 -40 -2 -26 8 -56 21
-68 30 -30 20 -13 19 22 -2z"/>
<path d="M1083 2172 c-6 -4 13 -17 43 -28 55 -22 71 -20 33 4 -33 21 -65 31
-76 24z"/>
<path d="M985 2140 c3 -5 12 -10 20 -10 7 0 23 -12 35 -27 17 -21 21 -37 17
-65 -3 -21 -1 -41 4 -44 5 -3 7 -10 4 -15 -3 -5 1 -6 9 -3 21 8 30 93 14 134
-12 29 -18 33 -62 37 -31 2 -45 0 -41 -7z"/>
<path d="M1224 2075 c-5 -11 -10 -13 -19 -5 -9 8 -15 2 -24 -22 -22 -60 -37
-83 -54 -82 -21 2 -22 -10 -2 -26 13 -11 20 -9 41 11 28 26 53 69 64 109 6 24
6 24 32 -14 14 -21 29 -33 32 -27 7 11 -41 71 -56 71 -5 0 -11 -7 -14 -15z"/>
<path d="M983 1949 c-67 -19 -92 -93 -53 -156 32 -53 116 -57 166 -8 36 36 33
95 -6 135 -16 16 -34 30 -39 30 -5 0 -15 2 -23 4 -7 2 -27 0 -45 -5z m63 -44
c17 -13 17 -14 1 -15 -14 0 -15 -3 -6 -18 7 -11 9 -31 5 -45 -5 -23 -9 -25
-35 -17 -20 5 -31 5 -33 -2 -2 -6 -4 5 -5 25 -1 20 5 41 13 48 8 6 11 16 7 22
-3 6 -1 7 5 3 7 -4 12 -2 12 3 0 15 13 14 36 -4z m-84 -23 c-7 -2 -12 -17 -12
-32 0 -34 -15 -48 -18 -17 -4 41 7 67 25 60 11 -4 13 -8 5 -11z m118 -40 c0
-10 -7 -27 -16 -38 -15 -19 -16 -19 -8 1 3 11 6 28 6 38 0 9 3 17 9 17 5 0 9
-8 9 -18z"/>
<path d="M1285 1910 c-4 -6 -14 -10 -23 -9 -10 1 -30 -4 -46 -11 -25 -13 -30
-12 -41 3 -18 25 -22 21 -17 -14 4 -29 6 -30 40 -24 20 4 48 13 62 20 31 16
58 45 42 45 -6 0 -14 -5 -17 -10z"/>
<path d="M1920 2259 c-144 -28 -294 -178 -314 -314 l-6 -40 13 40 c43 126 117
214 225 267 61 30 74 33 162 33 86 0 101 -3 160 -31 95 -46 153 -101 197 -192
36 -73 38 -80 38 -177 0 -93 -2 -105 -33 -167 -66 -134 -193 -218 -340 -226
-134 -7 -220 27 -311 122 -28 30 -51 51 -51 46 0 -5 22 -32 49 -62 27 -29 49
-57 49 -63 0 -5 6 -11 13 -14 7 -2 9 1 4 9 -5 9 -4 11 4 6 6 -4 9 -12 6 -17
-7 -10 35 -30 47 -22 4 2 33 -4 64 -13 135 -39 292 3 393 104 74 74 131 202
131 295 0 49 -25 149 -50 198 -31 60 -115 143 -177 176 -91 48 -175 61 -273
42z"/>
<path d="M1695 2196 c-55 -30 -114 -68 -131 -85 -17 -17 -39 -31 -48 -31 -9 0
-16 -4 -16 -9 0 -15 44 1 58 21 7 10 37 30 65 45 43 21 49 23 37 7 -8 -11 2
-5 22 13 21 17 58 44 83 58 43 26 54 35 38 35 -5 -1 -53 -25 -108 -54z"/>
<path d="M1868 2207 c-175 -74 -275 -264 -233 -442 22 -94 64 -158 147 -220
187 -141 449 -74 559 142 32 63 34 73 34 167 0 90 -3 107 -27 156 -37 75 -112
151 -184 186 -50 24 -73 29 -149 32 -76 2 -99 -1 -147 -21z m254 -14 c67 -26
131 -77 176 -141 23 -33 39 -62 35 -66 -3 -3 -2 -6 3 -6 5 0 11 -10 12 -22 4
-40 8 -57 15 -64 3 -4 4 -11 0 -17 -3 -6 -6 -29 -6 -51 0 -23 -4 -47 -10 -53
-5 -7 -6 -13 -3 -13 4 0 1 -10 -6 -22 -7 -13 -11 -26 -10 -30 1 -5 -2 -8 -8
-8 -5 0 -10 -6 -10 -13 0 -8 -15 -29 -32 -48 -18 -20 -27 -27 -19 -17 23 30
-1 20 -44 -18 -22 -20 -34 -33 -26 -29 29 16 3 -20 -28 -39 -25 -15 -50 -18
-117 -17 -57 1 -84 -2 -79 -8 3 -7 0 -8 -9 -5 -9 3 -16 9 -17 13 0 3 -2 31 -4
61 -5 95 41 160 65 93 31 -85 120 -182 120 -132 0 5 -20 31 -45 59 -49 56 -52
65 -30 97 l16 22 61 -39 c35 -23 73 -40 90 -40 30 0 31 1 22 24 -4 9 -18 16
-35 16 -34 0 -80 20 -73 31 3 5 -2 9 -10 9 -13 0 -13 4 2 30 16 28 21 30 74
30 58 0 108 15 108 33 0 5 -8 6 -17 2 -10 -5 -42 -10 -70 -12 -52 -4 -53 -4
-54 24 -1 23 -3 24 -6 6 -4 -23 -50 -73 -91 -101 -14 -9 -42 -14 -68 -13 -88
3 -147 80 -124 161 5 18 7 36 4 39 -2 3 -7 -5 -10 -16 -5 -17 -18 -24 -57 -33
-28 -6 -66 -22 -83 -35 -18 -14 -36 -25 -40 -25 -7 0 0 107 8 115 7 8 116 9
159 3 31 -5 41 -1 70 26 23 23 41 31 59 29 18 -2 20 -1 8 4 -9 5 -31 27 -48
51 -17 23 -46 50 -66 59 -32 16 -34 18 -18 30 26 19 89 16 110 -4 22 -22 44
-76 44 -108 0 -18 5 -25 20 -25 18 0 20 7 20 54 0 30 -5 67 -10 82 -9 23 -13
25 -23 13 -7 -8 -11 -12 -10 -10 5 8 -79 41 -102 41 -33 0 -75 -37 -75 -66 0
-19 -5 -24 -25 -24 -15 0 -40 -7 -57 -16 l-31 -16 19 30 c21 33 102 102 120
102 7 0 25 7 40 15 40 21 171 20 226 -2z m-244 -169 c68 -58 54 -82 -32 -52
-62 22 -101 15 -140 -23 -16 -16 -32 -26 -37 -24 -10 7 1 45 19 70 11 15 13
16 9 3 -4 -10 -2 -20 3 -23 6 -4 10 -2 10 4 0 5 15 26 34 45 44 48 79 48 134
0z m-20 -218 c2 -11 -11 -34 -32 -55 -19 -20 -44 -54 -54 -75 l-19 -39 -28 47
c-23 40 -25 49 -14 64 22 27 41 42 84 62 45 22 59 21 63 -4z m-155 -13 c2 -5
-1 -25 -8 -46 -11 -38 -11 -38 -23 -15 -7 13 -14 33 -17 46 -3 18 1 22 20 22
13 0 26 -3 28 -7z m208 -78 c-10 -56 -5 -173 8 -188 19 -24 2 -21 -64 8 -31
13 -54 29 -50 34 3 6 21 0 42 -14 32 -23 53 -31 53 -21 0 1 -22 17 -49 33 -48
30 -48 31 -45 77 4 59 36 96 79 93 24 -2 29 -6 26 -22z m-142 -86 c28 16 33
14 26 -10 -4 -13 -2 -25 5 -29 8 -5 5 -9 -9 -13 -11 -3 -20 -2 -19 2 2 20 -4
30 -16 25 -8 -3 -19 3 -25 15 -15 28 -13 40 3 18 12 -15 18 -16 35 -8z"/>
<path d="M2027 2186 c-4 -10 5 -16 29 -21 25 -4 41 -16 54 -38 32 -51 22 -137
-15 -137 -20 0 -19 -14 4 -34 19 -17 20 -16 45 27 30 50 56 157 30 122 -15
-20 -16 -20 -36 5 -11 14 -25 32 -32 41 -6 9 -25 23 -43 32 -26 14 -32 14 -36
3z"/>
<path d="M2200 2104 c1 -17 50 -70 50 -54 0 18 -8 30 -32 49 -10 7 -18 10 -18
5z"/>
<path d="M2253 1968 c4 -13 1 -18 -11 -18 -9 0 -28 -12 -41 -25 -22 -24 -25
-25 -48 -10 -23 16 -23 15 -17 -12 4 -15 9 -30 11 -33 8 -9 91 42 119 73 16
18 25 29 20 25 -5 -5 -16 -2 -24 5 -13 10 -15 9 -9 -5z"/>
<path d="M1953 1944 c-38 -16 -71 -70 -54 -87 6 -6 11 -24 11 -39 0 -34 29
-61 73 -69 40 -6 78 11 102 47 32 50 26 85 -26 135 -32 32 -57 35 -106 13z
m92 -34 c-3 -5 -1 -10 4 -10 6 0 11 -3 11 -8 0 -4 -18 -8 -39 -8 -46 -2 -48
22 -3 29 15 2 28 5 30 6 2 0 0 -3 -3 -9z m-75 -15 c-13 -16 -11 -18 40 -19 21
-1 25 -6 25 -29 -1 -22 3 -27 17 -24 10 3 16 2 13 -3 -7 -11 -83 -11 -90 1 -4
5 -11 9 -17 9 -13 0 30 -35 52 -42 8 -3 1 -7 -17 -10 -18 -2 -30 -2 -29 1 6 9
-21 31 -28 24 -3 -4 -6 1 -6 11 0 9 6 19 14 22 8 3 14 14 13 24 -1 15 -6 18
-26 13 -17 -4 -22 -2 -17 6 4 6 16 11 26 11 10 0 22 5 25 10 3 6 9 10 12 10 3
0 0 -7 -7 -15z"/>
<path d="M615 2160 c-22 -11 -53 -24 -69 -30 -16 -5 -27 -13 -24 -15 7 -7 136
44 144 56 8 13 -6 10 -51 -11z"/>
<path d="M2369 2088 c66 -98 91 -216 68 -316 -12 -53 -12 -62 0 -66 8 -4 15
-6 16 -6 6 0 0 196 -7 252 -8 61 -7 67 13 77 17 9 20 9 15 -3 -3 -8 -1 -17 5
-21 6 -3 12 -23 13 -43 0 -21 4 -6 8 33 3 39 3 77 -1 85 -8 14 -10 13 -13 -9
0 -5 -14 -19 -30 -32 -28 -22 -29 -22 -42 -4 -8 10 -14 24 -14 29 -1 12 -45
66 -54 66 -3 0 8 -19 23 -42z"/>
<path d="M431 2058 l1 -33 7 30 c5 24 8 26 13 13 4 -10 5 -25 2 -33 -4 -8 -1
-15 6 -15 19 0 8 64 -12 68 -14 3 -18 -3 -17 -30z"/>
<path d="M598 2079 c-10 -5 -18 -17 -18 -26 0 -9 -8 -25 -17 -35 -12 -14 -13
-17 -2 -13 16 7 74 85 62 85 -4 0 -16 -5 -25 -11z"/>
<path d="M436 1903 c2 -63 5 -117 8 -121 3 -3 6 47 6 111 0 64 -4 118 -8 121
-4 2 -7 -47 -6 -111z"/>
<path d="M2539 1980 c0 -19 -5 -46 -9 -60 -7 -18 -8 -11 -5 25 3 39 2 44 -4
20 -10 -36 -14 -269 -5 -314 9 -42 31 -39 43 7 11 41 18 208 9 217 -3 3 -7
-41 -10 -97 -2 -57 -10 -112 -17 -123 -10 -17 -11 -7 -6 55 17 186 21 276 14
290 -6 10 -9 4 -10 -20z"/>
<path d="M382 1883 l2 -108 3 90 c5 131 17 137 23 10 l6 -110 2 113 c2 106 1
112 -18 112 -19 0 -20 -6 -18 -107z"/>
<path d="M570 1927 c0 -9 0 -18 -1 -19 -8 -23 -14 -88 -9 -88 9 0 24 109 16
118 -3 3 -6 -2 -6 -11z"/>
<path d="M2615 1850 c24 -6 26 -8 8 -9 -31 -1 -29 -21 2 -21 18 0 25 5 25 20
0 16 -6 20 -32 19 l-33 -1 30 -8z"/>
<path d="M380 1646 c0 -22 20 -30 22 -9 1 10 5 -20 8 -67 l6 -85 2 88 c2 81 1
87 -18 87 -11 0 -20 -6 -20 -14z"/>
<path d="M2412 1602 c-23 -15 -59 -47 -80 -72 l-37 -44 32 23 c18 13 34 30 37
37 3 7 29 29 58 48 61 42 54 47 -10 8z"/>
<path d="M2518 1545 c-4 -78 13 -71 22 10 4 40 3 55 -6 55 -8 0 -13 -22 -16
-65z"/>
<path d="M1431 1555 c-1 -12 -7 -27 -13 -35 -7 -8 -4 -7 7 2 11 9 40 18 65 21
l45 4 -47 1 c-26 1 -49 7 -51 15 -3 6 -6 3 -6 -8z"/>
<path d="M2432 1549 c-19 -6 -32 -15 -29 -22 4 -13 46 -10 64 5 7 5 16 7 21 4
5 -3 9 1 9 9 0 17 -17 18 -65 4z"/>
<path d="M715 1498 c20 -25 48 -54 63 -63 25 -15 24 -14 -4 12 -17 15 -46 44
-63 63 -30 32 -29 30 4 -12z"/>
<path d="M2310 1475 c-13 -14 -43 -37 -67 -51 -40 -23 -43 -27 -41 -67 l1 -42
7 45 c7 43 9 42 14 -7 5 -44 16 -36 16 10 0 26 3 47 8 47 13 1 97 78 91 84 -3
3 -16 -5 -29 -19z"/>
<path d="M1412 1478 c-19 -19 -14 -33 6 -15 23 21 160 24 181 5 11 -11 13 -10
9 2 -6 20 -177 27 -196 8z"/>
<path d="M685 1420 c26 -17 27 -20 9 -20 -11 0 -25 -5 -31 -11 -6 -6 -17 -11
-25 -13 -8 -1 -27 -12 -44 -25 -26 -21 -26 -23 -6 -18 19 4 22 1 22 -23 0 -23
-4 -27 -25 -27 -21 0 -25 3 -20 21 5 20 4 19 -7 -2 -13 -26 -12 -28 30 -37
l32 -7 0 51 0 51 70 0 c70 0 70 0 64 -25 -6 -23 -4 -25 32 -25 22 0 48 8 59
16 19 15 18 15 -16 10 -30 -4 -40 -1 -57 19 -12 14 -22 27 -22 29 0 2 129 3
288 3 202 0 298 4 325 12 46 16 246 22 270 9 23 -12 37 -1 17 12 -20 13 -272
13 -304 0 -14 -5 -159 -11 -323 -14 -281 -4 -298 -3 -321 15 -14 10 -30 19
-36 19 -6 0 3 -9 19 -20z"/>
<path d="M1746 1363 c90 -58 153 -57 168 2 4 14 11 23 16 20 5 -3 11 -1 15 5
15 24 25 6 25 -46 0 -71 19 -63 22 9 l1 52 7 -50 c7 -49 15 -36 11 18 -1 15 3
27 8 27 6 0 12 -15 12 -32 l2 -33 7 35 7 35 2 -38 c1 -48 19 -40 19 8 l0 36
-195 -2 -195 -2 68 -44z m135 -6 c-11 -28 -31 -37 -31 -13 0 9 -10 14 -27 13
-47 0 -63 3 -63 12 0 15 57 23 79 11 15 -8 21 -8 21 0 0 6 5 8 10 5 6 -3 10 0
11 7 0 8 2 9 5 2 3 -6 0 -23 -5 -37z"/>
<path d="M2130 1363 l4 -48 6 45 6 45 6 -40 5 -40 -1 40 c-1 27 -6 41 -16 43
-12 2 -14 -6 -10 -45z"/>
<path d="M398 1362 c-22 -4 -24 -42 -3 -42 16 0 30 23 23 38 -1 4 -11 6 -20 4z"/>
<path d="M1498 1363 c-19 -5 -24 -38 -8 -48 6 -3 10 -17 10 -29 0 -21 -4 -23
-47 -21 -40 1 -47 5 -50 25 -6 40 -13 36 -13 -7 0 -22 3 -43 6 -46 12 -11 15
-97 4 -97 -5 0 -10 22 -10 49 l0 50 -215 1 -215 1 0 -36 c0 -39 19 -40 21 -2
1 17 3 15 9 -8 l8 -30 2 30 2 30 8 -26 c13 -44 43 -81 77 -95 45 -19 56 -18
41 6 -7 11 -20 20 -28 20 -26 0 -40 22 -39 60 l2 35 7 -35 7 -35 2 33 c1 39
20 34 22 -6 1 -24 3 -23 9 8 l7 35 2 -32 c0 -18 6 -33 11 -33 6 0 8 11 4 25
-4 15 -2 25 5 25 6 0 12 -15 12 -32 2 -32 2 -32 9 7 7 39 7 39 9 8 0 -18 6
-33 12 -33 7 0 9 10 7 25 -3 14 -1 28 3 31 5 3 10 -12 10 -33 l2 -38 7 40 c7
39 7 39 9 8 0 -18 6 -33 12 -33 7 0 9 10 5 24 -3 14 -2 28 4 31 6 4 11 -9 11
-32 l2 -38 7 40 c6 31 8 34 10 15 2 -14 2 -44 1 -67 -2 -26 2 -43 8 -43 7 0
12 27 13 68 l1 67 7 -50 7 -50 1 48 c2 58 21 63 24 5 l1 -43 7 45 6 45 5 -45
4 -45 95 3 c52 2 126 -1 163 -6 37 -5 70 -5 73 -1 2 4 -21 9 -53 11 l-58 3 -6
45 -6 45 -1 -43 c-1 -26 -6 -41 -12 -37 -5 3 -8 22 -5 42 3 25 -1 43 -11 55
-10 10 -17 36 -17 68 0 27 -1 49 -1 49 -1 -1 -9 -3 -18 -6z m37 -151 c-3 -8
-5 -23 -5 -33 0 -16 -6 -20 -27 -17 -24 3 -28 8 -31 41 -3 31 1 39 20 46 26
10 53 -13 43 -37z m-75 -12 c0 -27 -4 -50 -10 -50 -5 0 -10 23 -10 50 0 28 5
50 10 50 6 0 10 -22 10 -50z m-31 -7 c-1 -45 -1 -46 -10 -18 -8 27 -4 65 7 65
2 0 4 -21 3 -47z m-51 -18 c1 -19 -3 -35 -8 -35 -6 0 -10 18 -10 41 0 49 16
44 18 -6z"/>
<path d="M1924 1325 c-32 -36 -33 -45 -5 -45 14 0 14 2 1 10 -12 8 -9 10 13
10 23 0 27 4 27 30 0 17 -1 30 -2 29 -2 0 -17 -16 -34 -34z"/>
<path d="M1665 1322 c3 -9 0 -10 -15 -2 -17 9 -20 8 -20 -11 0 -12 -3 -19 -7
-16 -3 4 -13 1 -21 -6 -13 -10 -15 -9 -9 6 3 9 2 17 -3 17 -6 0 -10 -6 -11
-12 0 -7 -4 -4 -9 7 -7 15 -9 16 -9 4 -1 -9 6 -22 14 -29 12 -10 27 -9 80 9
36 11 82 21 103 21 31 1 34 2 19 11 -28 16 -118 17 -112 1z"/>
<path d="M920 1315 c0 -17 -9 -19 -29 -6 -9 6 -19 4 -28 -4 -23 -24 -15 -33
21 -25 19 4 37 5 40 2 4 -3 6 7 6 21 0 15 -2 27 -5 27 -3 0 -5 -7 -5 -15z"/>
<path d="M1151 1313 c-1 -8 -30 -11 -96 -9 -62 1 -94 -2 -92 -9 5 -13 417 -19
417 -6 0 14 -31 19 -57 10 -13 -5 -25 -4 -29 2 -4 8 -9 7 -15 -2 -7 -11 -9 -9
-9 6 0 11 -4 16 -8 10 -11 -16 -34 -17 -43 -3 -7 10 -9 10 -9 -2 0 -13 -1 -13
-10 0 -6 10 -10 11 -10 3 0 -7 -6 -13 -14 -13 -8 0 -17 6 -19 13 -4 8 -6 8 -6
0z"/>
<path d="M2033 1245 c0 -38 2 -53 4 -32 2 20 2 52 0 70 -2 17 -4 1 -4 -38z"/>
<path d="M2133 1240 c0 -41 2 -58 4 -37 2 20 2 54 0 75 -2 20 -4 3 -4 -38z"/>
<path d="M2183 1245 c0 -38 2 -53 4 -32 2 20 2 52 0 70 -2 17 -4 1 -4 -38z"/>
<path d="M2207 1303 c-11 -10 -8 -103 3 -103 6 0 10 25 10 55 0 56 -1 60 -13
48z"/>
<path d="M741 1285 c-2 -30 18 -45 60 -45 43 0 49 5 38 40 -7 24 -7 24 -8 3
-1 -20 -7 -23 -40 -23 -33 0 -40 4 -44 23 -4 20 -4 20 -6 2z"/>
<path d="M941 1235 l1 -70 10 59 c6 40 6 62 -1 69 -8 8 -11 -9 -10 -58z"/>
<path d="M2050 1238 c0 -34 3 -59 6 -55 10 10 13 117 3 117 -5 0 -9 -28 -9
-62z"/>
<path d="M2083 1235 c0 -38 2 -53 4 -32 2 20 2 52 0 70 -2 17 -4 1 -4 -38z"/>
<path d="M2150 1239 c0 -37 4 -58 10 -54 6 3 10 31 10 61 0 30 -4 54 -10 54
-6 0 -10 -27 -10 -61z"/>
<path d="M1705 1279 c-20 -5 -9 -6 30 -2 33 3 62 7 64 9 8 7 -63 2 -94 -7z"/>
<path d="M1812 1269 c-13 -5 -28 -7 -33 -3 -5 3 -8 -22 -7 -58 l1 -63 6 55 c4
35 9 50 14 42 5 -7 6 -31 2 -52 -4 -25 -3 -40 4 -40 5 0 12 26 14 58 l3 57 2
-62 2 -63 -30 0 c-26 0 -30 -3 -29 -27 2 -24 2 -25 6 -5 3 17 11 22 36 22 l32
0 -1 72 -1 73 7 -65 c3 -36 8 -56 10 -45 2 11 2 29 1 40 -1 11 2 31 6 45 6 20
9 13 13 -35 l7 -60 1 63 c2 58 1 62 -20 61 -13 0 -34 -4 -46 -10z"/>
<path d="M2007 1273 c-4 -3 -7 -29 -7 -57 0 -31 -7 -61 -16 -76 l-17 -25 21
20 c15 15 21 37 24 83 2 34 4 62 3 62 -1 0 -5 -3 -8 -7z"/>
<path d="M408 1210 c-13 -142 3 -217 45 -205 63 18 65 21 72 121 9 118 -5 161
-18 54 -5 -41 -9 -92 -10 -112 -1 -26 -6 -38 -15 -38 -11 0 -13 9 -9 39 2 21
1 45 -4 52 -6 9 -9 -7 -9 -43 0 -47 -3 -58 -16 -58 -14 0 -16 7 -11 40 3 22 0
54 -6 70 -8 22 -8 35 2 53 7 14 11 31 8 39 -3 7 -6 2 -8 -12 -1 -15 -5 -7 -8
20 l-7 45 -6 -65z"/>
<path d="M1890 1197 c0 -69 -10 -97 -33 -97 -5 0 -7 8 -3 18 4 11 0 9 -10 -5
-9 -13 -24 -23 -34 -23 -10 0 -20 -6 -23 -14 -4 -10 -17 -12 -46 -9 -31 4 -42
1 -46 -11 -3 -9 -7 -24 -10 -33 -4 -12 -9 -13 -17 -5 -8 8 -8 15 2 27 17 21
-4 20 -26 -2 -10 -10 -29 -16 -50 -15 -29 2 -34 -1 -34 -19 0 -18 3 -19 14 -9
10 8 33 9 70 5 l56 -7 0 32 c0 27 3 31 22 28 20 -3 22 -8 20 -44 -2 -26 2 -45
11 -52 12 -10 14 -4 11 40 l-3 53 10 -45 c16 -67 17 -70 29 -70 6 0 9 4 6 9
-4 5 0 12 6 14 9 4 8 6 -2 6 -19 1 -24 69 -7 91 7 8 32 22 55 30 l44 15 1 83
c1 45 -1 82 -5 82 -5 0 -8 -33 -8 -73z"/>
<path d="M1702 1203 l2 -58 5 55 5 55 6 -55 7 -55 1 58 c2 45 -1 57 -13 57
-12 0 -15 -12 -13 -57z"/>
<path d="M1744 1209 c6 -70 16 -74 16 -6 0 32 -4 57 -10 57 -5 0 -8 -22 -6
-51z"/>
<path d="M1940 1215 c0 -25 5 -45 10 -45 6 0 10 20 10 45 0 25 -4 45 -10 45
-5 0 -10 -20 -10 -45z"/>
<path d="M1970 1220 c0 -22 5 -40 10 -40 6 0 10 18 10 40 0 22 -4 40 -10 40
-5 0 -10 -18 -10 -40z"/>
<path d="M2100 1219 c0 -24 4 -38 10 -34 6 3 10 22 10 41 0 19 -4 34 -10 34
-5 0 -10 -18 -10 -41z"/>
<path d="M1658 1243 c-2 -5 -1 -28 3 -53 l6 -45 3 50 3 50 7 -45 7 -45 1 48
c2 35 -2 47 -12 47 -8 0 -16 -3 -18 -7z"/>
<path d="M858 1210 c5 -35 19 -39 25 -7 l4 22 2 -22 c0 -13 6 -23 11 -23 6 0
11 10 11 23 1 18 3 16 9 -8 8 -30 8 -30 9 8 1 37 0 37 -37 37 -37 0 -38 -1
-34 -30z"/>
<path d="M1584 1191 c1 -43 16 -50 16 -8 0 21 -4 37 -8 37 -5 0 -8 -13 -8 -29z"/>
<path d="M1941 1135 c-17 -20 -31 -38 -31 -41 0 -9 42 24 57 46 25 36 8 33
-26 -5z"/>
<path d="M1160 1129 c0 -6 -8 -8 -17 -5 -10 3 -2 -8 17 -24 42 -37 62 -40 23
-4 -20 19 -23 24 -9 20 16 -6 17 -4 6 9 -15 18 -20 19 -20 4z"/>
<path d="M1926 1085 c-11 -8 -36 -15 -55 -15 -27 0 -32 -3 -21 -10 25 -16 49
-11 78 15 29 27 28 33 -2 10z"/>
<path d="M1234 1055 c3 -8 2 -35 -3 -60 -8 -43 -7 -45 14 -45 13 0 26 6 28 13
3 6 6 2 6 -10 1 -12 6 -25 11 -28 10 -6 8 15 -6 103 -4 27 -2 32 16 32 16 0
20 -6 20 -30 0 -30 1 -31 46 -29 25 2 47 7 50 11 3 5 10 5 16 2 7 -5 8 -2 3 6
-13 21 16 30 108 30 51 0 87 4 87 10 0 6 -47 10 -122 10 -103 -1 -119 -3 -101
-13 16 -9 20 -16 13 -27 -8 -13 -11 -13 -19 -1 -7 11 -9 11 -13 0 -4 -9 -10
-4 -18 14 -12 25 -17 27 -78 27 -53 0 -63 -3 -58 -15z m120 -11 c10 -25 7 -34
-9 -34 -9 0 -15 9 -15 25 0 28 15 34 24 9z"/>
<path d="M1181 1010 c-2 -14 -4 -29 -6 -35 -1 -5 -3 -22 -3 -37 -1 -15 -13
-39 -26 -54 -23 -27 -26 -28 -146 -31 -132 -3 -147 -8 -173 -62 -11 -24 -19
-26 -84 -31 -43 -3 -78 -11 -89 -20 -11 -9 -32 -22 -48 -30 -16 -8 -35 -29
-42 -46 -7 -17 -21 -34 -30 -38 -24 -9 -94 12 -94 29 0 8 -7 15 -15 15 -8 0
-15 -9 -15 -20 0 -11 5 -20 10 -20 6 0 8 -16 4 -42 -4 -25 -3 -39 2 -35 9 8
10 12 12 55 1 12 7 22 13 22 7 0 8 -14 4 -40 -5 -27 -3 -40 5 -40 7 0 9 8 5
19 -3 11 1 24 11 32 13 11 18 11 21 2 6 -17 28 -16 43 1 6 8 18 12 26 9 10 -4
14 3 14 26 0 28 5 34 43 50 23 10 48 26 56 35 10 12 31 16 92 16 l79 0 0 28
c0 52 23 61 159 64 l124 3 29 36 c27 33 29 42 25 100 -2 35 -5 53 -6 39z"/>
<path d="M1839 1014 c-4 -92 3 -130 29 -156 26 -25 32 -26 161 -30 117 -3 135
-6 147 -23 8 -10 14 -29 14 -42 0 -22 4 -23 68 -23 58 0 77 -5 135 -36 59 -31
67 -39 67 -65 0 -22 5 -29 20 -29 17 0 20 -7 20 -45 0 -40 -3 -45 -22 -46 -27
-1 47 -18 77 -17 16 0 15 2 -5 8 -24 8 -23 8 7 9 25 1 31 -2 27 -14 -4 -9 -19
-15 -35 -15 -16 0 -29 -4 -29 -10 0 -5 11 -10 24 -10 13 0 33 -3 43 -8 13 -5
6 -8 -27 -12 l-45 -6 48 -4 47 -5 0 47 c0 41 -3 48 -22 52 -77 16 -78 16 -78
40 0 16 7 26 22 29 26 7 45 -6 51 -36 2 -12 5 -3 6 21 1 38 3 42 26 42 23 0
25 -4 25 -44 0 -26 6 -51 15 -60 11 -10 15 -37 15 -94 0 -69 3 -81 22 -98 l22
-19 -18 29 c-15 24 -18 42 -13 99 6 69 18 99 31 78 5 -7 57 -11 147 -11 117 0
139 2 139 15 0 13 -24 15 -152 16 -84 1 -160 1 -169 0 -18 -2 -28 41 -29 119
-1 35 -3 41 -11 28 -10 -18 -49 -25 -49 -10 0 14 23 32 41 32 9 0 19 7 23 15
3 8 14 15 25 15 11 0 22 3 24 8 3 4 71 5 151 2 142 -5 147 -4 144 15 -3 19 -9
20 -153 16 -82 -2 -159 -8 -170 -14 -51 -26 -96 -70 -93 -91 4 -32 -10 -46
-47 -46 -27 0 -37 6 -53 35 -27 45 -118 91 -199 100 -50 6 -63 11 -71 31 -22
46 -56 58 -174 60 -60 1 -119 5 -131 8 -32 8 -49 43 -54 106 -5 55 -12 80 -14
44z"/>
<path d="M1367 958 c4 -7 6 -21 4 -32 -5 -34 8 -66 29 -66 11 0 20 -4 20 -10
0 -5 6 -10 13 -10 8 0 11 16 9 56 -4 50 -2 55 15 52 14 -3 17 -11 15 -41 -3
-33 0 -37 20 -37 19 0 20 2 8 10 -12 8 -10 10 8 10 13 0 20 -4 17 -10 -3 -5 3
-10 14 -10 12 0 21 4 21 9 0 15 -26 31 -46 27 -16 -3 -19 1 -18 23 1 35 -10
41 -79 41 -44 0 -56 -3 -50 -12z m61 -46 c2 -33 0 -42 -12 -42 -12 0 -16 11
-16 46 0 59 24 55 28 -4z"/>
<path d="M1530 951 c-14 -27 -13 -31 10 -31 11 0 20 7 20 15 0 10 10 15 29 15
27 0 29 -3 29 -40 0 -22 -3 -40 -7 -40 -14 0 -8 -29 6 -35 12 -4 12 -7 1 -19
-8 -8 -23 -16 -34 -19 -11 -3 -4 -5 17 -6 29 -1 38 4 47 23 9 21 8 25 -6 29
-12 3 -11 5 6 6 25 1 28 -15 8 -44 -7 -11 -17 -36 -21 -55 -7 -34 -7 -34 11
-19 11 9 26 19 34 22 11 3 8 7 -10 15 -14 6 -20 11 -13 11 12 1 30 45 28 71 0
8 -8 14 -18 12 -14 -2 -17 6 -17 53 l0 55 -55 0 c-43 0 -56 -4 -65 -19z"/>
<path d="M1226 931 c-19 -7 -19 -8 2 -13 12 -4 22 -11 22 -18 0 -6 -4 -9 -9
-6 -5 3 -11 -4 -15 -17 -3 -12 -28 -48 -56 -80 -29 -31 -48 -57 -43 -57 4 0
28 25 53 56 25 31 57 70 73 88 l27 31 -6 -35 c-4 -19 -14 -45 -22 -58 -8 -12
-12 -25 -9 -28 9 -9 47 58 47 83 0 12 8 24 18 26 16 4 16 5 -1 6 -10 0 -28 7
-40 15 -13 8 -30 11 -41 7z"/>
<path d="M1744 904 c-6 -30 -2 -43 25 -80 17 -25 31 -46 31 -47 0 -1 -22 0
-50 1 -32 3 -50 0 -50 -7 0 -7 21 -11 53 -11 46 0 57 -4 82 -30 l29 -30 -35 0
c-42 0 -53 8 -38 27 9 10 8 13 -3 13 -8 0 -18 -12 -24 -27 -7 -22 -5 -31 16
-55 23 -26 30 -28 99 -28 58 0 72 3 63 12 -7 7 -12 21 -13 33 -1 26 -31 77
-49 83 -9 3 -6 -7 8 -30 22 -35 33 -111 12 -78 -6 9 -10 11 -10 3 0 -7 -6 -10
-14 -7 -10 4 -12 14 -6 40 5 21 4 32 -2 28 -5 -3 -8 0 -7 7 5 22 -21 60 -34
53 -7 -4 -9 -4 -5 0 3 4 -9 28 -28 53 -37 49 -42 63 -19 63 8 0 15 5 15 10 0
20 18 9 29 -18 7 -16 35 -51 64 -79 l52 -51 69 7 c103 9 97 29 -7 28 l-84 -2
-42 44 c-23 25 -45 58 -48 73 -4 20 -10 27 -20 24 -8 -3 -23 -1 -33 4 -17 9
-20 6 -26 -26z m116 -228 c0 -18 -32 -26 -54 -14 -23 13 -10 28 25 28 18 0 29
-5 29 -14z"/>
<path d="M1172 851 c-18 -27 -33 -39 -47 -37 -11 2 -14 1 -7 -1 25 -9 11 -23
-25 -24 -21 0 -65 -2 -98 -4 -33 -1 -75 -3 -92 -4 -18 0 -33 -6 -33 -12 0 -5
4 -8 9 -5 5 4 11 2 13 -4 2 -6 15 -7 33 -2 36 9 165 3 165 -8 0 -17 -58 -30
-122 -26 -66 3 -149 -4 -238 -22 l-45 -9 46 -2 c25 0 49 2 53 6 11 11 176 9
174 -2 -1 -5 5 -22 12 -37 11 -23 20 -28 52 -28 36 0 38 2 38 30 0 29 17 56
104 164 38 47 50 66 41 66 -3 0 -18 -18 -33 -39z m-149 -155 c24 -18 21 -36
-6 -36 -28 0 -47 17 -40 36 6 17 23 17 46 0z"/>
<path d="M1203 798 c-26 -35 -54 -68 -62 -74 -8 -7 -21 -27 -27 -45 -7 -19
-13 -26 -13 -16 -1 25 -21 11 -21 -15 0 -18 5 -20 73 -16 62 3 76 7 99 31 24
24 26 30 16 52 -6 14 -16 25 -21 25 -5 0 -4 -7 3 -15 12 -15 5 -18 -55 -27
-11 -2 -21 -12 -23 -23 -2 -11 -9 -24 -14 -30 -7 -7 -9 -1 -6 17 3 15 1 25 -3
22 -5 -3 -9 -14 -9 -25 0 -11 -5 -17 -10 -14 -13 8 1 34 59 110 47 61 75 105
67 105 -3 0 -26 -28 -53 -62z"/>
<path d="M1340 814 l0 -35 -56 2 c-40 2 -58 -1 -64 -12 -7 -12 3 -13 57 -11
37 2 66 9 68 15 2 7 6 24 9 40 5 20 12 27 29 26 17 -1 18 -2 5 -6 -20 -5 -23
-20 -8 -43 8 -12 10 -10 11 10 1 17 3 19 6 8 2 -10 9 -18 14 -18 5 0 12 0 16
-1 4 0 10 9 15 20 4 12 3 21 -2 21 -6 0 -10 -7 -10 -15 0 -8 -4 -15 -10 -15
-5 0 -10 11 -10 25 0 22 -4 25 -35 25 -33 0 -35 -2 -35 -36z"/>
<path d="M1472 798 c3 -7 18 -14 35 -16 29 -3 30 -4 29 -52 -2 -62 -19 -82
-65 -78 -32 3 -36 6 -34 28 1 14 -1 19 -3 13 -3 -7 -12 -13 -20 -13 -15 0 -17
-9 -8 -34 5 -13 24 -16 105 -15 103 0 103 0 102 47 -1 6 5 12 13 12 8 0 14 4
14 8 0 4 -17 6 -37 3 -21 -3 -30 -6 -20 -9 18 -4 21 -11 11 -36 -9 -23 -24
-20 -24 5 0 13 -4 18 -12 13 -8 -5 -9 -2 -5 10 4 10 7 20 7 22 0 2 7 4 15 4 8
0 15 8 15 17 0 13 -3 14 -12 5 -21 -21 -31 -13 -25 23 6 35 5 35 -31 36 -33 1
-34 2 -12 9 23 8 23 8 -8 9 -23 1 -32 -3 -30 -11z"/>
<path d="M94 780 c-41 -9 -94 -49 -94 -72 0 -23 24 -14 45 18 15 24 18 24 164
24 l149 0 33 -32 c18 -18 30 -27 25 -20 -4 8 -1 12 10 12 21 0 -50 59 -80 65
-37 8 -220 12 -252 5z"/>
<path d="M1423 772 c-13 -2 -23 -8 -23 -13 0 -5 -12 -7 -27 -4 l-28 6 28 -16
c15 -9 27 -24 27 -35 0 -11 5 -20 10 -20 6 0 10 7 10 15 0 8 8 23 19 34 22 22
15 38 -16 33z"/>
<path d="M2090 766 c0 -12 10 -16 36 -16 45 0 42 24 -4 28 -24 2 -32 -1 -32
-12z"/>
<path d="M1331 731 c-18 -12 -6 -43 16 -39 22 4 29 28 8 28 -9 0 -13 5 -10 10
8 12 4 12 -14 1z"/>
<path d="M1940 734 c0 0 7 -15 16 -32 8 -18 13 -41 9 -52 -6 -18 -2 -20 42
-20 40 1 51 5 67 27 19 26 19 26 0 19 -60 -23 -91 -16 -78 18 4 11 11 13 31 5
13 -5 32 -9 41 -8 10 1 7 4 -8 9 -20 6 -17 7 17 7 24 -1 37 -5 30 -9 -7 -5 1
-8 19 -8 21 0 41 -10 62 -30 19 -17 43 -30 57 -30 28 0 25 20 -3 20 -21 1 -77
48 -68 58 4 3 16 1 27 -6 14 -9 24 -10 33 -3 7 6 17 6 26 1 15 -10 118 -14
109 -5 -12 12 -429 50 -429 39z"/>
<path d="M63 708 c-11 -13 -24 -41 -28 -63 -11 -61 -19 -65 -26 -10 -4 38 -6
29 -6 -40 0 -53 2 -75 6 -55 4 23 24 57 55 93 l50 57 91 0 91 0 25 -32 c17
-23 24 -46 24 -75 l0 -43 -162 0 -163 0 0 -27 c0 -20 3 -24 9 -14 7 11 38 14
145 12 82 -1 143 2 155 9 24 12 29 0 34 -90 3 -47 4 -45 5 19 2 86 9 88 21 5
7 -52 8 -44 7 56 0 63 -2 96 -4 73 -4 -56 -27 -58 -29 -3 -1 22 2 40 6 40 15
0 5 69 -13 89 -17 19 -30 21 -146 21 -118 0 -128 -1 -147 -22z"/>
<path d="M1460 715 c-9 -11 -10 -19 -3 -26 14 -14 53 10 46 28 -7 18 -28 16
-43 -2z"/>
<path d="M1673 715 c-18 -20 -17 -22 15 -21 17 1 27 7 27 16 0 20 -27 23 -42
5z"/>
<path d="M2686 705 c-27 -25 -28 -39 -6 -100 4 -11 5 -26 3 -32 -3 -7 1 -13 7
-13 7 0 10 12 9 28 -2 18 5 39 19 56 12 16 22 33 22 37 0 5 44 9 99 9 l98 0
24 -35 c13 -19 27 -35 32 -35 13 0 7 21 -18 57 -28 42 -25 55 6 27 22 -19 22
-19 10 4 -11 21 -17 22 -145 22 -128 0 -134 -1 -160 -25z m34 -7 c-1 -18 -28
-53 -36 -46 -5 6 24 58 32 58 2 0 4 -6 4 -12z"/>
<path d="M834 669 c-10 -11 -26 -18 -35 -16 -10 3 -20 -1 -23 -9 -4 -10 4 -13
28 -12 24 1 36 8 49 30 19 33 8 37 -19 7z"/>
<path d="M1286 655 c-11 -16 -12 -25 -5 -25 12 0 38 29 39 43 0 16 -18 6 -34
-18z"/>
<path d="M1725 660 c10 -32 10 -32 30 -28 14 2 12 7 -10 28 l-27 25 7 -25z"/>
<path d="M185 660 l-80 -6 88 -2 c52 -1 87 2 87 8 0 6 -3 9 -7 8 -5 -1 -44 -5
-88 -8z"/>
<path d="M612 658 c-9 -9 -12 -97 -12 -337 0 -178 3 -321 7 -317 10 10 10 -6
11 324 2 278 3 293 22 312 20 20 46 28 36 11 -3 -5 1 -12 10 -15 10 -4 13 -2
8 7 -4 6 2 3 14 -7 40 -35 16 -96 -36 -96 -12 0 -22 -4 -22 -10 0 -23 49 -9
69 19 25 35 26 59 5 89 -15 22 -15 23 9 17 14 -4 28 -2 31 4 10 16 -136 15
-152 -1z"/>
<path d="M872 658 c-20 -20 -14 -26 21 -23 17 2 40 3 50 4 10 1 15 6 12 12 -4
6 -14 8 -22 5 -8 -3 -11 -1 -8 4 9 14 -39 12 -53 -2z"/>
<path d="M2102 650 c-11 -19 -10 -20 27 -20 22 0 43 -4 46 -10 3 -5 12 -10 18
-10 8 0 8 3 2 8 -5 4 -15 16 -21 27 -15 28 -56 31 -72 5z"/>
<path d="M2280 656 c0 -9 9 -12 28 -8 22 4 25 2 15 -9 -19 -19 -16 -67 6 -98
16 -22 26 -27 50 -23 24 3 27 7 18 17 -7 7 -15 11 -20 8 -11 -6 -47 7 -47 17
0 5 6 8 13 6 6 -1 9 -1 5 1 -5 3 -8 11 -8 18 0 7 -6 15 -12 18 -10 3 -10 7 1
20 16 20 42 22 61 5 12 -11 12 -10 1 4 -7 9 -22 19 -34 21 -19 4 -19 4 4 6 15
0 34 -8 45 -20 18 -19 19 -40 18 -330 0 -170 3 -309 8 -309 4 0 8 127 9 283 1
335 0 358 -13 375 -15 18 -148 17 -148 -2z"/>
<path d="M2763 658 c-2 -5 38 -7 89 -7 97 2 89 6 -20 11 -35 2 -66 0 -69 -4z"/>
<path d="M1336 645 c-19 -14 -17 -15 18 -15 33 0 36 2 22 15 -18 18 -16 18
-40 0z"/>
<path d="M100 633 c0 -5 41 -8 90 -8 50 0 90 3 90 8 0 4 -40 7 -90 7 -49 0
-90 -3 -90 -7z"/>
<path d="M2808 633 c29 -2 74 -2 100 0 26 2 2 3 -53 3 -55 0 -76 -1 -47 -3z"/>
<path d="M700 620 c5 -36 0 -42 -34 -37 -32 4 -34 3 -23 -14 7 -11 15 -19 20
-19 4 0 6 4 2 9 -3 5 4 11 16 13 30 4 48 33 30 50 -10 11 -12 10 -11 -2z"/>
<path d="M1483 590 c2 -30 5 -35 25 -33 12 2 22 -2 22 -7 0 -6 -7 -10 -15 -10
-8 0 -15 -4 -15 -10 0 -21 26 -9 43 19 19 33 22 61 6 61 -5 0 -8 -4 -5 -9 6
-10 -12 -28 -33 -33 -10 -2 -18 8 -22 27 -7 30 -7 30 -6 -5z"/>
<path d="M90 600 c0 -6 38 -10 94 -10 53 0 98 4 101 10 4 6 -30 10 -94 10 -61
0 -101 -4 -101 -10z"/>
<path d="M2350 598 c0 -5 7 -11 15 -14 8 -4 12 -11 8 -18 -3 -6 -2 -8 2 -3 5
4 10 16 12 27 2 13 -3 18 -17 17 -11 -1 -20 -5 -20 -9z"/>
<path d="M2760 601 c0 -10 186 -8 197 3 3 3 -39 6 -95 6 -56 0 -102 -4 -102
-9z"/>
<path d="M948 584 c-5 -4 -8 -23 -8 -43 0 -25 3 -32 11 -24 6 6 9 25 7 43 -2
17 -6 28 -10 24z"/>
<path d="M977 583 c-11 -10 -8 -61 3 -68 6 -4 10 10 10 34 0 42 -2 46 -13 34z"/>
<path d="M1009 588 c-5 -24 -4 -78 3 -78 4 0 8 18 8 40 0 22 -2 40 -5 40 -3 0
-5 -1 -6 -2z"/>
<path d="M1100 551 c0 -23 5 -41 10 -41 6 0 10 15 10 34 0 19 -4 38 -10 41 -6
4 -10 -10 -10 -34z"/>
<path d="M1130 550 c0 -22 5 -40 10 -40 6 0 10 18 10 40 0 22 -4 40 -10 40 -5
0 -10 -18 -10 -40z"/>
<path d="M1700 549 c0 -24 4 -38 10 -34 6 3 10 22 10 41 0 19 -4 34 -10 34 -5
0 -10 -18 -10 -41z"/>
<path d="M1736 574 c-9 -24 -7 -54 4 -54 6 0 10 16 10 35 0 38 -4 44 -14 19z"/>
<path d="M1766 574 c-9 -24 -7 -54 4 -54 6 0 10 16 10 35 0 38 -4 44 -14 19z"/>
<path d="M1800 550 c0 -25 4 -39 10 -35 6 3 10 19 10 35 0 16 -4 32 -10 35 -6
4 -10 -10 -10 -35z"/>
<path d="M1900 549 c0 -23 3 -39 6 -36 11 10 13 67 3 73 -5 3 -9 -14 -9 -37z"/>
<path d="M1930 549 c0 -24 4 -38 10 -34 6 3 10 22 10 41 0 19 -4 34 -10 34 -5
0 -10 -18 -10 -41z"/>
<path d="M1967 583 c-11 -10 -8 -61 3 -68 6 -4 10 10 10 34 0 42 -2 46 -13 34z"/>
<path d="M2060 550 c0 -25 4 -39 10 -35 6 3 10 19 10 35 0 16 -4 32 -10 35 -6
4 -10 -10 -10 -35z"/>
<path d="M2097 583 c-11 -10 -8 -73 3 -73 6 0 10 18 10 40 0 41 -2 45 -13 33z"/>
<path d="M2129 588 c-7 -17 -6 -78 2 -78 5 0 9 18 9 40 0 32 -6 51 -11 38z"/>
<path d="M515 558 c-6 -23 -13 -28 -39 -29 -17 -1 -37 -1 -44 0 -9 2 -12 -8
-10 -31 3 -32 4 -33 46 -30 46 4 59 -14 15 -21 -26 -4 -26 -4 5 -6 19 0 32 4
33 12 1 6 2 26 3 42 0 17 4 32 7 35 3 3 2 16 -1 30 l-7 25 -8 -27z m-5 -53 c0
-10 -10 -15 -30 -15 -29 0 -38 9 -23 23 13 13 53 7 53 -8z"/>
<path d="M1260 550 c0 -16 5 -30 10 -30 6 0 10 14 10 30 0 17 -4 30 -10 30 -5
0 -10 -13 -10 -30z"/>
<path d="M1290 550 c0 -16 5 -30 10 -30 6 0 10 14 10 30 0 17 -4 30 -10 30 -5
0 -10 -13 -10 -30z"/>
<path d="M1320 550 c0 -16 5 -30 10 -30 6 0 10 14 10 30 0 17 -4 30 -10 30 -5
0 -10 -13 -10 -30z"/>
<path d="M1353 550 c-1 -16 2 -32 7 -35 6 -4 10 9 10 29 0 43 -14 48 -17 6z"/>
<path d="M847 563 c-11 -10 -8 -53 3 -53 6 0 10 14 10 30 0 31 -2 35 -13 23z"/>
<path d="M560 510 c12 -7 12 -10 -4 -16 -18 -7 -18 -8 0 -21 13 -10 14 -13 3
-13 -12 0 -12 -2 1 -10 11 -7 11 -10 2 -10 -8 0 -11 -9 -8 -27 2 -16 6 -116 7
-223 3 -236 13 -156 17 133 2 183 1 197 -15 197 -15 0 -16 -2 -3 -10z"/>
<path d="M640 471 c0 -20 3 -22 12 -13 19 19 26 14 30 -15 3 -22 5 -19 9 14 4
41 4 42 -23 40 -22 -2 -28 -7 -28 -26z"/>
<path d="M2463 485 c0 -8 10 -15 21 -16 21 0 21 -1 1 -9 -19 -8 -19 -9 3 -9
13 -1 22 5 22 14 0 8 -6 15 -12 15 -9 0 -8 4 2 10 12 8 10 10 -11 10 -16 0
-26 -5 -26 -15z"/>
<path d="M45 480 c-4 -6 -11 -8 -16 -5 -5 4 -8 -9 -8 -27 1 -21 3 -26 6 -13 8
32 25 47 50 42 12 -2 20 0 17 4 -7 12 -41 11 -49 -1z"/>
<path d="M1013 483 c86 -2 228 -2 315 0 86 1 15 3 -158 3 -173 0 -244 -2 -157
-3z"/>
<path d="M1618 483 c18 -2 45 -2 60 0 15 2 0 4 -33 4 -33 0 -45 -2 -27 -4z"/>
<path d="M1993 483 c48 -2 125 -2 170 0 45 1 6 3 -88 3 -93 0 -130 -2 -82 -3z"/>
<path d="M2350 463 c1 -24 2 -25 11 -10 5 9 19 17 29 17 11 0 20 5 20 10 0 6
-13 10 -30 10 -26 0 -30 -4 -30 -27z"/>
<path d="M122 458 c-14 -14 -16 -38 -2 -38 6 0 10 -7 10 -16 0 -10 4 -12 13
-7 6 4 25 8 41 9 15 1 35 9 45 18 15 16 14 16 -11 3 -31 -16 -88 -11 -88 8 0
7 7 16 16 19 8 3 12 2 9 -4 -3 -6 -1 -10 4 -10 6 0 11 5 11 10 0 6 5 10 11 10
6 0 9 -7 6 -15 -5 -11 -1 -12 20 -4 15 5 33 7 41 4 8 -3 12 0 10 7 -6 18 -119
23 -136 6z"/>
<path d="M2793 459 c-10 -10 -9 -15 5 -26 16 -13 15 -14 -5 -10 -15 3 -23 0
-23 -8 0 -8 9 -11 25 -7 19 3 24 9 20 22 -5 15 0 17 36 13 29 -4 39 -2 35 6
-4 6 0 11 9 11 26 0 13 -33 -15 -41 l-25 -7 27 -1 c14 -1 28 -4 31 -8 2 -5 2
-2 1 5 -2 6 1 12 7 12 6 0 9 10 7 23 -3 20 -9 22 -63 25 -37 2 -65 -2 -72 -9z"/>
<path d="M1090 444 c0 -8 13 -12 30 -12 18 1 30 6 30 15 0 9 -10 13 -30 11
-16 -1 -30 -8 -30 -14z"/>
<path d="M2464 424 c3 -9 6 -108 6 -220 0 -138 3 -204 11 -204 7 0 10 66 8
208 -1 115 1 214 5 220 5 8 -1 12 -14 12 -16 0 -20 -4 -16 -16z"/>
<path d="M1490 409 c0 -7 -126 -10 -425 -7 -299 2 -425 0 -425 -8 0 -6 13 -9
30 -6 27 4 30 1 30 -22 0 -14 5 -26 10 -26 6 0 10 6 10 14 0 8 6 16 13 18 29
10 379 -1 393 -13 8 -6 14 -8 14 -3 0 4 7 -1 15 -12 8 -10 15 -14 15 -7 0 14
30 6 30 -9 0 -5 -5 -6 -12 -2 -7 4 -8 3 -4 -5 4 -6 11 -9 15 -6 10 6 96 -76
97 -92 1 -7 3 -61 4 -120 l4 -108 5 100 c3 55 3 104 -1 110 -13 15 -9 25 8 25
9 0 -15 30 -58 71 l-73 72 152 -6 c125 -4 152 -3 157 9 7 19 29 18 71 -6 20
-11 34 -16 31 -11 -4 5 44 10 114 10 66 1 120 -2 120 -6 0 -5 -12 -22 -27 -39
-16 -17 -22 -22 -14 -12 25 32 1 19 -30 -16 -24 -28 -36 -34 -63 -31 -33 3
-34 1 -38 -36 -2 -22 1 -39 7 -39 5 0 3 -5 -5 -10 -13 -9 -13 -10 0 -10 13 0
13 -1 0 -10 -13 -9 -13 -10 0 -10 13 0 13 -1 0 -10 -13 -9 -13 -10 0 -10 13 0
13 -1 0 -10 -13 -9 -13 -10 0 -10 9 0 11 -3 5 -8 -5 -4 -10 -28 -10 -54 0 -36
4 -48 15 -48 13 0 15 19 15 115 0 95 3 115 15 116 10 0 8 3 -5 8 -16 7 -13 9
17 12 35 5 36 4 22 -15 -17 -24 -20 -236 -4 -236 6 0 10 43 10 109 l0 110 51
61 c28 34 53 59 56 56 3 -3 0 -14 -7 -23 -7 -10 4 0 24 21 33 36 41 38 37 11
-1 -5 7 1 17 14 12 15 24 21 32 16 7 -4 71 -7 142 -6 127 2 129 1 118 -19 -6
-11 -15 -20 -20 -20 -6 0 -10 -6 -10 -13 0 -8 -12 -19 -26 -25 -14 -7 -22 -17
-19 -22 3 -6 -1 -10 -9 -10 -8 0 -16 12 -19 28 -2 15 -5 3 -6 -26 -1 -36 3
-51 10 -47 6 4 8 13 5 21 -3 8 0 14 6 14 6 0 42 29 79 65 93 90 110 82 19 -10
l-74 -75 89 2 90 2 -80 6 c-44 3 -69 7 -55 8 20 2 22 4 10 12 -11 7 7 10 60
12 l75 1 -65 7 -65 7 60 3 60 3 -50 7 c-27 4 -40 8 -27 8 13 1 20 6 17 12 -4
6 6 11 22 11 17 1 21 3 11 6 -10 2 -18 9 -18 15 0 6 10 8 25 4 20 -5 25 -3 25
14 0 27 60 30 60 3 1 -10 1 -98 1 -195 0 -103 4 -178 10 -178 5 0 9 85 9 205
l0 205 -27 1 c-16 1 -32 0 -38 -2 -5 -2 -184 -6 -398 -9 -306 -4 -387 -2 -387
8 0 7 -14 12 -35 12 -19 0 -35 -5 -35 -11z"/>
<path d="M2627 390 c-16 -19 -25 -52 -10 -37 3 4 12 2 20 -4 10 -9 13 -4 13
25 0 20 -1 36 -3 36 -1 0 -10 -9 -20 -20z"/>
<path d="M100 384 c1 -29 19 -35 96 -32 43 2 77 7 74 12 -3 5 -36 8 -73 7 -41
-2 -74 2 -83 10 -8 6 -14 8 -14 3z"/>
<path d="M2355 370 c-3 -5 0 -10 7 -10 8 0 9 -3 3 -8 -15 -11 -13 -222 3 -222
9 0 12 31 12 119 0 109 -8 148 -25 121z"/>
<path d="M2770 362 c0 -10 21 -12 87 -10 117 4 120 23 3 23 -67 0 -90 -3 -90
-13z"/>
<path d="M865 280 c38 -38 71 -70 72 -70 2 0 3 7 3 15 0 8 -8 15 -17 15 -15 0
-16 2 -3 10 10 6 11 10 3 10 -7 0 -34 20 -60 45 -76 71 -75 52 2 -25z"/>
<path d="M1940 341 c0 -5 -26 -40 -58 -78 l-58 -69 3 -94 c2 -51 5 -96 8 -98
2 -2 12 -1 22 3 17 8 17 8 0 12 -10 3 -16 12 -15 21 2 14 18 18 78 23 l75 5
-80 3 c-55 2 -74 5 -60 11 17 7 17 9 3 9 -10 1 -18 6 -18 11 0 6 8 10 18 11
14 0 14 2 -3 9 -13 6 14 8 75 8 67 0 86 -3 65 -8 l-30 -9 29 2 c16 1 31 8 34
15 3 9 -21 12 -95 14 l-98 2 100 6 100 6 -100 5 -100 5 98 2 97 2 0 53 c0 28
-5 59 -10 67 -8 12 -10 11 -10 -7 0 -13 0 -26 1 -29 0 -4 -5 -11 -13 -15 -10
-6 -8 -9 7 -9 15 0 17 -2 6 -9 -11 -7 -11 -9 0 -14 8 -3 -15 -7 -51 -8 l-65
-2 65 -7 c62 -6 61 -7 -30 -7 -52 0 -87 1 -77 4 9 2 17 13 17 24 0 11 7 19 17
19 9 0 13 3 10 6 -4 4 2 15 13 24 24 21 55 90 40 90 -5 0 -10 -4 -10 -9z"/>
<path d="M1086 325 c6 -17 54 -85 94 -132 6 -8 5 -13 -3 -16 -7 -3 -2 -6 11
-6 34 -1 27 19 -34 89 -76 88 -76 88 -68 65z"/>
<path d="M780 322 c0 -7 4 -12 9 -12 5 0 12 -9 16 -19 3 -11 16 -23 28 -28 18
-6 14 -9 -23 -14 l-45 -6 53 -1 c28 -1 52 -1 52 1 0 2 -20 23 -45 47 -25 24
-45 39 -45 32z"/>
<path d="M1850 285 c-24 -24 -47 -42 -51 -39 -4 2 -15 -6 -23 -18 -19 -27 -24
-228 -5 -228 7 0 9 33 6 98 -3 71 -1 106 9 123 13 23 13 23 8 -11 l-6 -35 17
30 c9 17 26 41 38 55 72 81 76 95 7 25z"/>
<path d="M2054 230 c0 -58 1 -81 3 -52 2 28 2 76 0 105 -2 28 -3 5 -3 -53z"/>
<path d="M954 235 c0 -50 1 -71 3 -48 2 23 2 64 0 90 -2 26 -3 8 -3 -42z"/>
<path d="M1139 307 c7 -9 18 -14 24 -10 7 4 8 0 3 -13 -4 -10 -4 -15 0 -11 4
4 21 -5 38 -20 28 -26 28 -26 -4 12 -19 22 -36 40 -39 40 -3 0 -13 4 -21 10
-13 8 -13 7 -1 -8z"/>
<path d="M983 230 c0 -47 2 -66 4 -42 2 23 2 61 0 85 -2 23 -4 4 -4 -43z"/>
<path d="M2710 303 c0 -4 9 -14 20 -21 11 -7 20 -8 20 -3 0 5 9 9 20 8 11 -1
20 -4 20 -7 0 -3 20 -4 45 -3 40 2 45 -1 46 -20 0 -14 2 -17 6 -7 14 44 16 45
23 20 8 -24 8 -24 9 -2 2 39 20 24 23 -20 l3 -43 5 48 5 47 -107 0 c-58 0
-113 3 -122 6 -9 3 -16 2 -16 -3z"/>
<path d="M1360 280 c-2 -14 -3 -32 -2 -40 0 -8 -5 -18 -11 -22 -8 -5 -6 -8 5
-8 23 0 25 8 17 55 -5 30 -7 34 -9 15z"/>
<path d="M1478 243 c28 -2 76 -2 105 0 28 2 5 3 -53 3 -58 0 -81 -1 -52 -3z"/>
<path d="M2972 213 c-2 -20 -5 -40 -8 -45 -10 -16 -34 -8 -34 12 0 11 -4 20
-9 20 -5 0 -8 -11 -8 -25 0 -22 4 -25 33 -25 32 0 33 0 39 -57 11 -103 12
-100 13 30 0 92 -3 127 -12 127 -7 0 -13 -16 -14 -37z"/>
<path d="M845 230 l-30 -8 35 -1 c23 -1 45 -10 63 -26 15 -14 27 -22 27 -17 0
8 -57 63 -62 61 -2 -1 -16 -5 -33 -9z"/>
<path d="M61 192 c0 -18 -6 -43 -13 -55 -11 -21 -14 -125 -3 -135 12 -12 18
11 16 57 -1 27 2 60 7 72 4 13 5 40 1 59 l-6 35 -2 -33z"/>
<path d="M2178 213 c29 -2 74 -2 100 0 26 2 2 3 -53 3 -55 0 -76 -1 -47 -3z"/>
<path d="M341 188 c0 -16 4 -28 9 -28 6 0 10 -16 10 -36 0 -21 4 -33 10 -29
15 9 12 51 -4 65 -8 6 -17 21 -19 33 -4 18 -5 17 -6 -5z"/>
<path d="M661 173 c-1 -32 3 -43 14 -43 17 0 20 11 6 26 -5 5 -11 20 -14 34
-3 16 -5 10 -6 -17z"/>
<path d="M1344 151 c1 -39 5 -55 16 -58 13 -4 13 -3 0 6 -12 9 -13 11 -1 11 8
0 11 3 8 7 -4 3 -2 12 4 20 9 10 8 13 -4 13 -9 0 -18 11 -20 28 -3 15 -4 3 -3
-27z"/>
<path d="M2153 193 c31 -2 83 -2 115 0 31 2 5 3 -58 3 -63 0 -89 -1 -57 -3z"/>
<path d="M2647 186 c-5 -12 -3 -22 4 -27 14 -8 21 -70 9 -84 -9 -12 -1 -75 10
-75 4 0 8 17 8 38 0 20 1 54 3 75 3 34 5 37 35 37 18 0 35 -6 37 -12 3 -7 6 2
6 20 1 33 -12 43 -23 17 -9 -23 -70 -15 -76 10 -6 19 -6 19 -13 1z"/>
<path d="M2780 188 c0 -3 27 -8 60 -10 44 -2 60 0 60 10 0 9 -17 12 -60 10
-33 -2 -60 -6 -60 -10z"/>
<path d="M748 183 c18 -2 45 -2 60 0 15 2 0 4 -33 4 -33 0 -45 -2 -27 -4z"/>
<path d="M1231 129 c0 -37 -4 -81 -7 -98 -4 -17 -3 -31 2 -31 5 0 10 28 12 63
2 34 7 64 13 65 5 2 9 8 9 13 0 6 -4 8 -9 4 -5 -3 -12 7 -14 22 -2 16 -5 -2
-6 -38z"/>
<path d="M1038 173 c23 -2 61 -2 85 0 23 2 4 4 -43 4 -47 0 -66 -2 -42 -4z"/>
<path d="M2158 173 c23 -2 59 -2 80 0 20 2 1 4 -43 4 -44 0 -61 -2 -37 -4z"/>
<path d="M738 163 c18 -2 45 -2 60 0 15 2 0 4 -33 4 -33 0 -45 -2 -27 -4z"/>
<path d="M139 141 c-9 -10 -19 -30 -23 -45 -3 -14 -13 -26 -21 -26 -24 0 -17
-20 8 -21 21 -1 21 -1 -3 -9 -24 -8 -24 -8 -2 -9 31 -1 28 -19 -5 -24 -26 -4
-26 -4 5 -6 l32 -1 0 53 0 52 62 -1 63 -1 -57 4 c-77 5 -74 23 3 23 44 0 60 3
57 13 -7 20 -100 19 -119 -2z"/>
<path d="M1000 151 c0 -24 14 -41 34 -40 20 1 20 2 1 8 -11 3 25 9 80 12 l100
5 -105 2 c-72 2 -100 5 -90 12 13 8 12 10 -2 10 -10 0 -18 -4 -18 -9z"/>
<path d="M2620 158 c-7 -38 -10 -158 -4 -158 5 0 10 36 12 80 1 44 0 80 -3 80
-3 0 -5 -1 -5 -2z"/>
<path d="M2780 145 c0 -12 13 -15 60 -15 47 0 60 3 60 15 0 12 -13 15 -60 15
-47 0 -60 -3 -60 -15z"/>
<path d="M758 143 c28 -2 76 -2 105 0 28 2 5 3 -53 3 -58 0 -81 -1 -52 -3z"/>
<path d="M2188 143 c29 -2 74 -2 100 0 26 2 2 3 -53 3 -55 0 -76 -1 -47 -3z"/>
<path d="M2910 130 c-12 -8 -13 -13 -2 -30 6 -11 13 -39 13 -62 1 -24 3 -35 6
-25 2 9 10 17 16 17 7 0 6 4 -3 10 -12 8 -11 10 8 10 22 0 32 20 10 20 -9 0
-8 4 2 10 12 8 11 10 -7 10 -15 0 -23 7 -25 25 -2 19 -6 22 -18 15z"/>
<path d="M768 123 c34 -2 88 -2 120 0 31 2 3 3 -63 3 -66 0 -92 -1 -57 -3z"/>
<path d="M2158 123 c34 -2 88 -2 120 0 31 2 3 3 -63 3 -66 0 -92 -1 -57 -3z"/>
<path d="M277 113 c-7 -15 5 -113 14 -113 5 0 9 9 9 20 0 15 7 20 25 20 18 0
25 5 25 19 0 15 -8 21 -32 23 -25 2 -32 7 -30 21 3 17 -4 23 -11 10z"/>
<path d="M1178 113 c6 -2 12 -13 12 -24 0 -10 -6 -19 -12 -19 -10 0 -9 -3 1
-9 11 -7 11 -9 0 -14 -9 -4 -10 -6 -2 -6 7 -1 10 -7 7 -15 -3 -8 -1 -17 5 -21
7 -4 11 14 11 54 0 52 -3 61 -17 60 -11 0 -13 -3 -5 -6z"/>
<path d="M1417 108 c-7 -4 30 -8 82 -8 52 0 92 2 89 5 -8 8 -159 11 -171 3z"/>
<path d="M2350 95 c0 -14 5 -25 11 -25 5 0 8 -4 4 -9 -3 -5 -1 -12 4 -15 5 -3
9 9 9 28 0 21 -6 37 -14 40 -10 4 -14 -2 -14 -19z"/>
<path d="M2757 99 c-3 -12 -13 -20 -24 -19 -34 4 -43 0 -43 -20 0 -16 5 -19
30 -13 27 5 30 3 30 -21 0 -14 5 -26 10 -26 6 0 10 27 10 60 0 63 -4 74 -13
39z"/>
<path d="M803 103 c26 -2 68 -2 95 0 26 2 4 3 -48 3 -52 0 -74 -1 -47 -3z"/>
<path d="M2148 103 c34 -2 88 -2 120 0 31 2 3 3 -63 3 -66 0 -92 -1 -57 -3z"/>
<path d="M1250 57 c0 -25 4 -49 10 -52 6 -4 7 11 3 42 -8 63 -13 67 -13 10z"/>
<path d="M150 40 c0 -22 4 -40 10 -40 5 0 7 13 4 30 l-6 30 51 0 c28 0 51 5
51 10 0 6 -25 10 -55 10 l-55 0 0 -40z"/>
<path d="M1416 72 c-3 -5 22 -7 55 -5 32 2 69 -1 80 -8 13 -7 19 -7 15 -1 -4
6 6 12 21 15 16 2 -16 5 -69 6 -53 0 -99 -3 -102 -7z"/>
<path d="M2790 70 c0 -5 25 -10 55 -10 30 0 55 5 55 10 0 6 -25 10 -55 10 -30
0 -55 -4 -55 -10z"/>
<path d="M773 53 c37 -2 96 -2 130 0 34 2 4 3 -68 3 -71 0 -99 -1 -62 -3z"/>
<path d="M2148 53 c34 -2 90 -2 125 0 34 2 6 3 -63 3 -69 0 -97 -1 -62 -3z"/>
<path d="M748 33 c23 -2 61 -2 85 0 23 2 4 4 -43 4 -47 0 -66 -2 -42 -4z"/>
<path d="M2209 33 c110 -3 136 -7 146 -20 9 -12 14 -13 20 -3 15 24 -20 30
-160 28 l-140 -2 134 -3z"/>
<path d="M2060 8 c0 -5 60 -7 133 -6 133 2 117 5 -46 10 -48 2 -87 0 -87 -4z"/>
</g>
</svg>
